<svg width="465px" height="44px"
 viewBox="0.00 0.00 465.31 44.21" xmlns="http://www.w3.org/2000/svg" xmlns:xlink="http://www.w3.org/1999/xlink">
<g id="graph0" class="graph" transform="scale(1.0 1.0) rotate(0.0) translate(4.0 40.21)">
<title>workflow</title>
<polygon fill="white" stroke="transparent" points="-4,4 -4,-40.21 461.31,-40.21 461.31,4 -4,4"/>
<!-- node1 -->
<g id="node1" class="node">
<title>node1</title>
<ellipse fill="lightgrey" stroke="black" cx="34.64" cy="-18.11" rx="34.77" ry="18"/>
<text text-anchor="middle" x="34.64" y="-13.91" font-family="Times,serif" font-size="14.00">node1</text>
</g>
<!-- node2 -->
<g id="node2" class="node">
<title>node2</title>
<ellipse fill="lightgrey" stroke="black" cx="139.91" cy="-18.11" rx="34.77" ry="18"/>
<text text-anchor="middle" x="139.91" y="-13.91" font-family="Times,serif" font-size="14.00">node2</text>
</g>
<!-- node1&#45;&gt;node2 -->
<g id="edge1" class="edge">
<title>node1&#45;&gt;node2</title>
<path fill="none" stroke="black" d="M69.45,-18.11C77.57,-18.11 86.35,-18.11 94.85,-18.11"/>
<polygon fill="black" stroke="black" points="95.02,-21.61 105.02,-18.11 95.02,-14.61 95.02,-21.61"/>
</g>
<!-- node3 -->
<g id="node3" class="node">
<title>node3</title>
<ellipse fill="lightgrey" stroke="black" cx="245.19" cy="-18.11" rx="34.77" ry="18"/>
<text text-anchor="middle" x="245.19" y="-13.91" font-family="Times,serif" font-size="14.00">node3</text>
</g>
<!-- node2&#45;&gt;node3 -->
<g id="edge2" class="edge">
<title>node2&#45;&gt;node3</title>
<path fill="none" stroke="black" d="M166.18,-6.31C178.93,-4.5 194.61,-4.13 208.57,-5.2"/>
<polygon fill="black" stroke="black" points="208.51,-8.72 218.82,-6.3 209.25,-1.76 208.51,-8.72"/>
</g>
<!-- node2&#45;&gt;node3 -->
<g id="edge4" class="edge">
<title>node2&#45;&gt;node3</title>
<path fill="none" stroke="black" d="M166.18,-29.9C178.93,-31.71 194.61,-32.08 208.57,-31.01"/>
<polygon fill="black" stroke="black" points="209.25,-34.46 218.82,-29.92 208.51,-27.5 209.25,-34.46"/>
</g>
<!-- node3&#45;&gt;node2 -->
<g id="edge3" class="edge">
<title>node3&#45;&gt;node2</title>
<path fill="none" stroke="black" d="M210.29,-18.11C202.18,-18.11 193.39,-18.11 184.89,-18.11"/>
<polygon fill="black" stroke="black" points="184.73,-14.61 174.73,-18.11 184.73,-21.61 184.73,-14.61"/>
</g>
<!-- node4 -->
<g id="node4" class="node">
<title>node4</title>
<ellipse fill="lightgrey" stroke="black" cx="350.46" cy="-18.11" rx="34.77" ry="18"/>
<text text-anchor="middle" x="350.46" y="-13.91" font-family="Times,serif" font-size="14.00">node4</text>
</g>
<!-- node3&#45;&gt;node4 -->
<g id="edge5" class="edge">
<title>node3&#45;&gt;node4</title>
<path fill="none" stroke="black" d="M280,-18.11C288.11,-18.11 296.9,-18.11 305.4,-18.11"/>
<polygon fill="black" stroke="black" points="305.57,-21.61 315.57,-18.11 305.57,-14.61 305.57,-21.61"/>
</g>
<!-- end -->
<g id="node5" class="node">
<title>end</title>
<polygon fill="lightgrey" stroke="black" points="457.42,-36.32 420.99,-36.32 420.99,0.11 457.42,0.11 457.42,-36.32"/>
<polyline fill="none" stroke="black" points="432.99,-36.32 420.99,-24.32 "/>
<polyline fill="none" stroke="black" points="420.99,-11.89 432.99,0.11 "/>
<polyline fill="none" stroke="black" points="445.42,0.11 457.42,-11.89 "/>
<polyline fill="none" stroke="black" points="457.42,-24.32 445.42,-36.32 "/>
<text text-anchor="middle" x="439.2" y="-13.91" font-family="Times,serif" font-size="14.00">end</text>
</g>
<!-- node4&#45;&gt;end -->
<g id="edge6" class="edge">
<title>node4&#45;&gt;end</title>
<path fill="none" stroke="black" d="M385.25,-18.11C393.71,-18.11 402.69,-18.11 410.81,-18.11"/>
<polygon fill="black" stroke="black" points="410.86,-21.61 420.86,-18.11 410.86,-14.61 410.86,-21.61"/>
</g>
</g>
</svg>
