<svg width="597px" height="44px"
 viewBox="0.00 0.00 596.69 44.21" xmlns="http://www.w3.org/2000/svg" xmlns:xlink="http://www.w3.org/1999/xlink">
<g id="graph0" class="graph" transform="scale(1.0 1.0) rotate(0.0) translate(4.0 40.21)">
<title>workflow</title>
<polygon fill="white" stroke="transparent" points="-4,4 -4,-40.21 592.69,-40.21 592.69,4 -4,4"/>
<!-- start -->
<g id="node1" class="node">
<title>start</title>
<polygon fill="orange" stroke="black" points="39.12,-36.11 -0.12,-18.11 39.12,-0.11 78.36,-18.11 39.12,-36.11"/>
<polyline fill="none" stroke="black" points="10.79,-23.11 10.79,-13.1 "/>
<polyline fill="none" stroke="black" points="28.21,-5.11 50.03,-5.11 "/>
<polyline fill="none" stroke="black" points="67.45,-13.1 67.45,-23.11 "/>
<polyline fill="none" stroke="black" points="50.03,-31.1 28.21,-31.1 "/>
<text text-anchor="middle" x="39.12" y="-13.91" font-family="Times,serif" font-size="14.00">start</text>
</g>
<!-- Node1 -->
<g id="node2" class="node">
<title>Node1</title>
<ellipse fill="lightgrey" stroke="black" cx="151.02" cy="-18.11" rx="36.56" ry="18"/>
<text text-anchor="middle" x="151.02" y="-13.91" font-family="Times,serif" font-size="14.00">Node1</text>
</g>
<!-- start&#45;&gt;Node1 -->
<g id="edge1" class="edge">
<title>start&#45;&gt;Node1</title>
<path fill="none" stroke="black" d="M78.25,-18.11C86.53,-18.11 95.38,-18.11 103.94,-18.11"/>
<polygon fill="black" stroke="black" points="104.17,-21.61 114.17,-18.11 104.17,-14.61 104.17,-21.61"/>
</g>
<!-- Node2 -->
<g id="node3" class="node">
<title>Node2</title>
<ellipse fill="lightgrey" stroke="black" cx="260.58" cy="-18.11" rx="36.56" ry="18"/>
<text text-anchor="middle" x="260.58" y="-13.91" font-family="Times,serif" font-size="14.00">Node2</text>
</g>
<!-- Node1&#45;&gt;Node2 -->
<g id="edge2" class="edge">
<title>Node1&#45;&gt;Node2</title>
<path fill="none" stroke="black" d="M187.83,-18.11C196,-18.11 204.79,-18.11 213.33,-18.11"/>
<polygon fill="black" stroke="black" points="213.55,-21.61 223.55,-18.11 213.55,-14.61 213.55,-21.61"/>
</g>
<!-- Node3 -->
<g id="node4" class="node">
<title>Node3</title>
<ellipse fill="lightgrey" stroke="black" cx="370.14" cy="-18.11" rx="36.56" ry="18"/>
<text text-anchor="middle" x="370.14" y="-13.91" font-family="Times,serif" font-size="14.00">Node3</text>
</g>
<!-- Node2&#45;&gt;Node3 -->
<g id="edge3" class="edge">
<title>Node2&#45;&gt;Node3</title>
<path fill="none" stroke="black" d="M288.44,-6.24C301.66,-4.49 317.8,-4.15 332.16,-5.21"/>
<polygon fill="black" stroke="black" points="331.94,-8.71 342.24,-6.23 332.65,-1.74 331.94,-8.71"/>
</g>
<!-- Node2&#45;&gt;Node3 -->
<g id="edge5" class="edge">
<title>Node2&#45;&gt;Node3</title>
<path fill="none" stroke="black" d="M288.44,-29.98C301.66,-31.73 317.8,-32.07 332.16,-31"/>
<polygon fill="black" stroke="black" points="332.65,-34.47 342.24,-29.98 331.94,-27.51 332.65,-34.47"/>
</g>
<!-- Node3&#45;&gt;Node2 -->
<g id="edge4" class="edge">
<title>Node3&#45;&gt;Node2</title>
<path fill="none" stroke="black" d="M333.11,-18.11C324.93,-18.11 316.14,-18.11 307.61,-18.11"/>
<polygon fill="black" stroke="black" points="307.39,-14.61 297.39,-18.11 307.39,-21.61 307.39,-14.61"/>
</g>
<!-- Node4 -->
<g id="node5" class="node">
<title>Node4</title>
<ellipse fill="lightgrey" stroke="black" cx="479.7" cy="-18.11" rx="36.56" ry="18"/>
<text text-anchor="middle" x="479.7" y="-13.91" font-family="Times,serif" font-size="14.00">Node4</text>
</g>
<!-- Node3&#45;&gt;Node4 -->
<g id="edge6" class="edge">
<title>Node3&#45;&gt;Node4</title>
<path fill="none" stroke="black" d="M406.95,-18.11C415.12,-18.11 423.91,-18.11 432.45,-18.11"/>
<polygon fill="black" stroke="black" points="432.67,-21.61 442.67,-18.11 432.67,-14.61 432.67,-21.61"/>
</g>
<!-- end -->
<g id="node6" class="node">
<title>end</title>
<polygon fill="lightgreen" stroke="black" points="588.8,-36.32 552.37,-36.32 552.37,0.11 588.8,0.11 588.8,-36.32"/>
<polyline fill="none" stroke="black" points="564.37,-36.32 552.37,-24.32 "/>
<polyline fill="none" stroke="black" points="552.37,-11.89 564.37,0.11 "/>
<polyline fill="none" stroke="black" points="576.8,0.11 588.8,-11.89 "/>
<polyline fill="none" stroke="black" points="588.8,-24.32 576.8,-36.32 "/>
<text text-anchor="middle" x="570.58" y="-13.91" font-family="Times,serif" font-size="14.00">end</text>
</g>
<!-- Node4&#45;&gt;end -->
<g id="edge7" class="edge">
<title>Node4&#45;&gt;end</title>
<path fill="none" stroke="black" d="M516.59,-18.11C525.17,-18.11 534.19,-18.11 542.3,-18.11"/>
<polygon fill="black" stroke="black" points="542.34,-21.61 552.34,-18.11 542.34,-14.61 542.34,-21.61"/>
</g>
</g>
</svg>
